<svg xmlns="http://www.w3.org/2000/svg" width="280" height="63" viewBox="0 0 280 63" fill="none">
  <path d="M279.164 -4.39e-06L268.062 3.17697L276.364 11.2025L279.164 -4.39e-06ZM1.54302 31.1693C1.07956 30.869 0.460341 31.0013 0.160006 31.4647C-0.140328 31.9282 -0.00806875 32.5474 0.45542 32.8478L1.54302 31.1693ZM276.673 1.13756C276.283 1.52787 276.282 2.16103 276.673 2.55178C277.063 2.94251 277.696 2.94287 278.087 2.55257L276.673 1.13756ZM274.294 6.13251C274.705 5.76368 274.739 5.13144 274.37 4.72036C274.001 4.30929 273.369 4.27505 272.958 4.64388L274.294 6.13251ZM269.066 7.99127C268.641 8.3432 268.581 8.97354 268.933 9.39917C269.285 9.82481 269.915 9.88456 270.341 9.53263L269.066 7.99127ZM266.273 12.7794C266.711 12.442 266.791 11.814 266.454 11.3768C266.117 10.9396 265.489 10.8587 265.051 11.1961L266.273 12.7794ZM260.945 14.2682C260.498 14.5926 260.399 15.2179 260.723 15.6649C261.048 16.1118 261.673 16.2112 262.12 15.8868L260.945 14.2682ZM257.87 18.8841C258.325 18.5718 258.441 17.9494 258.129 17.4939C257.817 17.0384 257.195 16.9222 256.739 17.2345L257.87 18.8841ZM252.46 20.0894C251.996 20.3902 251.865 21.0095 252.165 21.4727C252.466 21.9359 253.086 22.0676 253.549 21.7668L252.46 20.0894ZM249.169 24.5371C249.639 24.2473 249.786 23.6313 249.496 23.1611C249.206 22.6909 248.59 22.5447 248.12 22.8344L249.169 24.5371ZM243.709 25.4839C243.232 25.7629 243.072 26.3755 243.351 26.8521C243.63 27.3287 244.242 27.4889 244.719 27.2099L243.709 25.4839ZM240.207 29.7847C240.69 29.5162 240.863 28.9073 240.595 28.4247C240.326 27.942 239.718 27.7684 239.235 28.0369L240.207 29.7847ZM234.705 30.4935C234.217 30.7516 234.031 31.3567 234.289 31.8449C234.547 32.3332 235.152 32.5197 235.64 32.2616L234.705 30.4935ZM231.029 34.6383C231.522 34.3904 231.721 33.7893 231.473 33.2958C231.226 32.8023 230.625 32.6032 230.131 32.8511L231.029 34.6383ZM225.512 35.1124C225.013 35.3502 224.802 35.947 225.04 36.4455C225.277 36.944 225.874 37.1554 226.373 36.9176L225.512 35.1124ZM221.67 39.1027C222.173 38.875 222.397 38.2825 222.169 37.7793C221.941 37.2762 221.349 37.0528 220.846 37.2805L221.67 39.1027ZM216.136 39.3554C215.628 39.5731 215.393 40.161 215.61 40.6686C215.828 41.1762 216.416 41.4112 216.924 41.1936L216.136 39.3554ZM212.136 43.1906C212.648 42.983 212.894 42.3998 212.687 41.888C212.479 41.3762 211.896 41.1296 211.384 41.3372L212.136 43.1906ZM206.594 43.226C206.078 43.4236 205.82 44.0018 206.018 44.5176C206.215 45.0333 206.794 45.2912 207.309 45.0937L206.594 43.226ZM202.446 46.9029C202.965 46.7154 203.234 46.1422 203.047 45.6228C202.859 45.1033 202.286 44.8342 201.767 45.0217L202.446 46.9029ZM196.908 46.7231C196.385 46.9006 196.105 47.4685 196.283 47.9915C196.46 48.5145 197.028 48.7945 197.551 48.617L196.908 46.7231ZM192.629 50.2354C193.155 50.0679 193.446 49.5055 193.278 48.9792C193.111 48.453 192.549 48.1621 192.022 48.3296L192.629 50.2354ZM187.106 49.8429C186.577 50.0003 186.275 50.5571 186.433 51.0865C186.59 51.6158 187.147 51.9173 187.676 51.7599L187.106 49.8429ZM182.694 53.1904C183.227 53.043 183.539 52.492 183.391 51.9598C183.244 51.4275 182.693 51.1155 182.161 51.2629L182.694 53.1904ZM177.187 52.5898C176.653 52.7271 176.33 53.2721 176.468 53.8071C176.605 54.342 177.15 54.6643 177.685 54.527L177.187 52.5898ZM172.649 55.7696C173.186 55.6423 173.519 55.1035 173.391 54.5661C173.264 54.0286 172.725 53.6961 172.188 53.8234L172.649 55.7696ZM167.163 54.9637C166.623 55.0808 166.281 55.6133 166.398 56.1531C166.515 56.6928 167.048 57.0353 167.587 56.9181L167.163 54.9637ZM162.502 57.9725C163.044 57.8655 163.396 57.3395 163.289 56.7976C163.182 56.2558 162.656 55.9034 162.114 56.0105L162.502 57.9725ZM157.063 56.9601C156.519 57.0572 156.157 57.5766 156.254 58.1203C156.351 58.664 156.871 59.0261 157.414 58.929L157.063 56.9601ZM152.306 59.7919C152.851 59.7049 153.223 59.1923 153.136 58.6469C153.049 58.1015 152.536 57.7299 151.991 57.8168L152.306 59.7919ZM146.896 58.5782C146.348 58.6539 145.966 59.1587 146.042 59.7058C146.118 60.2529 146.622 60.635 147.17 60.5594L146.896 58.5782ZM142.062 61.2069C142.611 61.1436 143.005 60.6476 142.941 60.0989C142.878 59.5503 142.382 59.1568 141.833 59.2201L142.062 61.2069ZM136.759 59.7474C136.21 59.7983 135.805 60.2854 135.856 60.8353C135.907 61.3852 136.394 61.7898 136.944 61.7389L136.759 59.7474ZM131.802 62.1567C132.353 62.1181 132.769 61.6403 132.73 61.0893C132.692 60.5384 132.214 60.123 131.663 60.1616L131.802 62.1567ZM126.561 60.4616C126.009 60.4879 125.584 60.9564 125.61 61.5081C125.636 62.0598 126.105 62.4856 126.656 62.4594L126.561 60.4616ZM121.508 62.6476C122.06 62.6335 122.496 62.1746 122.482 61.6225C122.468 61.0703 122.009 60.6342 121.457 60.6483L121.508 62.6476ZM116.352 60.7224C115.8 60.7244 115.354 61.1737 115.355 61.726C115.357 62.2783 115.807 62.7244 116.359 62.7224L116.352 60.7224ZM111.212 62.6847C111.764 62.6947 112.22 62.2552 112.23 61.703C112.24 61.1508 111.801 60.695 111.249 60.685L111.212 62.6847ZM106.146 60.5368C105.594 60.5148 105.129 60.9443 105.107 61.4962C105.085 62.048 105.515 62.5132 106.066 62.5352L106.146 60.5368ZM100.917 62.2745C101.468 62.3083 101.943 61.8889 101.977 61.3376C102.01 60.7864 101.591 60.3121 101.04 60.2782L100.917 62.2745ZM95.9416 59.9105C95.3912 59.8649 94.9081 60.2741 94.8625 60.8245C94.8168 61.3749 95.2261 61.858 95.7765 61.9036L95.9416 59.9105ZM90.6462 61.4237C91.1955 61.481 91.6873 61.0821 91.7445 60.5328C91.8018 59.9835 91.4029 59.4917 90.8536 59.4345L90.6462 61.4237ZM85.7776 58.8513C85.2296 58.7824 84.7296 59.1709 84.6608 59.7189C84.592 60.2669 84.9804 60.7669 85.5284 60.8357L85.7776 58.8513ZM80.4248 60.1404C80.9713 60.2207 81.4793 59.8428 81.5596 59.2964C81.6398 58.75 81.2619 58.2419 80.7155 58.1617L80.4248 60.1404ZM75.6693 57.3665C75.1246 57.2749 74.6088 57.6421 74.5172 58.1867C74.4255 58.7314 74.7928 59.2472 75.3374 59.3388L75.6693 57.3665ZM70.2679 58.4315C70.8105 58.5344 71.3338 58.178 71.4368 57.6354C71.5397 57.0928 71.1833 56.5695 70.6407 56.4666L70.2679 58.4315ZM65.6317 55.4623C65.0913 55.3481 64.5607 55.6936 64.4465 56.2339C64.3323 56.7743 64.6778 57.3049 65.2182 57.4191L65.6317 55.4623ZM60.1901 56.3019C60.728 56.4273 61.2657 56.0929 61.3911 55.555C61.5164 55.0172 61.1821 54.4795 60.6442 54.3541L60.1901 56.3019ZM55.6804 53.1423C55.1453 53.0057 54.6008 53.3288 54.4642 53.8639C54.3276 54.3991 54.6507 54.9436 55.1858 55.0802L55.6804 53.1423ZM50.2076 53.7538C50.7398 53.9016 51.291 53.5901 51.4388 53.0579C51.5865 52.5258 51.275 51.9746 50.7428 51.8268L50.2076 53.7538ZM45.8343 50.4074C45.3054 50.2484 44.7477 50.5482 44.5887 51.0771C44.4296 51.6059 44.7294 52.1636 45.2583 52.3227L45.8343 50.4074ZM40.3414 50.7861C40.8667 50.9566 41.4307 50.6689 41.6011 50.1435C41.7716 49.6182 41.4839 49.0542 40.9585 48.8838L40.3414 50.7861ZM36.1205 47.2553C35.599 47.0733 35.0288 47.3485 34.8468 47.8699C34.6648 48.3914 34.94 48.9616 35.4615 49.1436L36.1205 47.2553ZM30.625 47.3942C31.1422 47.588 31.7185 47.3258 31.9123 46.8086C32.1061 46.2915 31.8439 45.7151 31.3267 45.5213L30.625 47.3942ZM26.5613 43.6714C26.0489 43.4653 25.4665 43.7137 25.2605 44.2261C25.0545 44.7386 25.3028 45.321 25.8153 45.527L26.5613 43.6714ZM21.0484 43.5409C21.5554 43.7598 22.1439 43.5262 22.3628 43.0192C22.5817 42.5121 22.3481 41.9236 21.841 41.7047L21.0484 43.5409ZM17.1961 39.6255C16.6952 39.3929 16.1006 39.6104 15.868 40.1113C15.6354 40.6123 15.8529 41.2069 16.3539 41.4395L17.1961 39.6255ZM11.6934 39.1905C12.187 39.4382 12.788 39.2389 13.0357 38.7453C13.2835 38.2517 13.0842 37.6507 12.5906 37.403L11.6934 39.1905ZM8.09259 35.0478C7.60809 34.7827 7.00041 34.9606 6.73531 35.4451C6.47023 35.9296 6.64807 36.5373 7.1326 36.8023L8.09259 35.0478ZM2.64857 34.2223C3.12062 34.509 3.73568 34.3587 4.02237 33.8867C4.30907 33.4146 4.15879 32.7996 3.68673 32.5129L2.64857 34.2223ZM272.958 4.64388C271.763 5.71596 270.465 6.83439 269.066 7.99127L270.341 9.53263C271.76 8.35946 273.078 7.22346 274.294 6.13251L272.958 4.64388ZM265.051 11.1961C263.75 12.2006 262.381 13.2261 260.945 14.2682L262.12 15.8868C263.571 14.8333 264.956 13.796 266.273 12.7794L265.051 11.1961ZM256.739 17.2345C255.363 18.1775 253.937 19.1301 252.46 20.0894L253.549 21.7668C255.04 20.7985 256.481 19.8366 257.87 18.8841L256.739 17.2345ZM248.12 22.8344C246.691 23.7153 245.22 24.5992 243.709 25.4839L244.719 27.2099C246.244 26.3175 247.727 25.4258 249.169 24.5371L248.12 22.8344ZM239.235 28.0369C237.76 28.8576 236.25 29.677 234.705 30.4935L235.64 32.2616C237.197 31.4385 238.72 30.6122 240.207 29.7847L239.235 28.0369ZM230.131 32.8511C228.621 33.6096 227.081 34.3638 225.512 35.1124L226.373 36.9176C227.955 36.1631 229.507 35.4028 231.029 34.6383L230.131 32.8511ZM220.846 37.2805C219.302 37.979 217.732 38.6711 216.136 39.3554L216.924 41.1936C218.532 40.504 220.114 39.8066 221.67 39.1027L220.846 37.2805ZM211.384 41.3372C209.811 41.9754 208.214 42.6053 206.594 43.226L207.309 45.0937C208.942 44.4683 210.551 43.8336 212.136 43.1906L211.384 41.3372ZM201.767 45.0217C200.168 45.5988 198.549 46.1662 196.908 46.7231L197.551 48.617C199.204 48.056 200.836 47.4843 202.446 46.9029L201.767 45.0217ZM192.022 48.3296C190.403 48.845 188.764 49.3497 187.106 49.8429L187.676 51.7599C189.346 51.2631 190.997 50.7546 192.629 50.2354L192.022 48.3296ZM182.161 51.2629C180.521 51.7171 178.863 52.1597 177.187 52.5898L177.685 54.527C179.372 54.0937 181.042 53.6479 182.694 53.1904L182.161 51.2629ZM172.188 53.8234C170.529 54.2161 168.854 54.5965 167.163 54.9637L167.587 56.9181C169.291 56.5483 170.978 56.1652 172.649 55.7696L172.188 53.8234ZM162.114 56.0105C160.445 56.3403 158.762 56.657 157.063 56.9601L157.414 58.929C159.125 58.6237 160.821 58.3047 162.502 57.9725L162.114 56.0105ZM151.991 57.8168C151.142 57.9522 150.29 58.0841 149.434 58.2125L149.73 60.1903C150.592 60.0611 151.451 59.9282 152.306 59.7919L151.991 57.8168ZM149.434 58.2125C148.586 58.3396 147.74 58.4615 146.896 58.5782L147.17 60.5594C148.021 60.4416 148.875 60.3186 149.73 60.1903L149.434 58.2125ZM141.833 59.2201C140.135 59.416 138.443 59.5915 136.759 59.7474L136.944 61.7389C138.642 61.5816 140.349 61.4045 142.062 61.2069L141.833 59.2201ZM131.663 60.1616C129.954 60.2812 128.253 60.381 126.561 60.4616L126.656 62.4594C128.363 62.378 130.078 62.2774 131.802 62.1567L131.663 60.1616ZM121.457 60.6483C119.745 60.692 118.043 60.7164 116.352 60.7224L116.359 62.7224C118.065 62.7163 119.782 62.6917 121.508 62.6476L121.457 60.6483ZM111.249 60.685C109.536 60.6538 107.835 60.6041 106.146 60.5368L106.066 62.5352C107.77 62.6031 109.485 62.6532 111.212 62.6847L111.249 60.685ZM101.04 60.2782C99.3271 60.1731 97.6276 60.0502 95.9416 59.9105L95.7765 61.9036C97.4764 62.0445 99.1902 62.1684 100.917 62.2745L101.04 60.2782ZM90.8536 59.4345C89.1463 59.2565 87.4541 59.0618 85.7776 58.8513L85.5284 60.8357C87.2187 61.0479 88.9248 61.2443 90.6462 61.4237L90.8536 59.4345ZM80.7155 58.1617C79.0157 57.912 77.3334 57.6466 75.6693 57.3665L75.3374 59.3388C77.0151 59.6211 78.7111 59.8887 80.4248 60.1404L80.7155 58.1617ZM70.6407 56.4666C68.9503 56.1459 67.2804 55.8107 65.6317 55.4623L65.2182 57.4191C66.8803 57.7703 68.5638 58.1082 70.2679 58.4315L70.6407 56.4666ZM60.6442 54.3541C58.9652 53.9627 57.3104 53.5583 55.6804 53.1423L55.1858 55.0802C56.8291 55.4996 58.4975 55.9073 60.1901 56.3019L60.6442 54.3541ZM50.7428 51.8268C49.0775 51.3643 47.4409 50.8906 45.8343 50.4074L45.2583 52.3227C46.8784 52.8099 48.5285 53.2875 50.2076 53.7538L50.7428 51.8268ZM40.9585 48.8838C39.3101 48.349 37.697 47.8054 36.1205 47.2553L35.4615 49.1436C37.0518 49.6986 38.6789 50.2468 40.3414 50.7861L40.9585 48.8838ZM31.3267 45.5213C29.6926 44.9091 28.1036 44.2915 26.5613 43.6714L25.8153 45.527C27.3722 46.153 28.976 46.7763 30.625 47.3942L31.3267 45.5213ZM21.841 41.7047C20.2314 41.0099 18.6824 40.3156 17.1961 39.6255L16.3539 41.4395C17.8568 42.1373 19.4224 42.839 21.0484 43.5409L21.841 41.7047ZM12.5906 37.403C10.9986 36.6039 9.49803 35.8168 8.09259 35.0478L7.1326 36.8023C8.55962 37.5831 10.0812 38.3813 11.6934 39.1905L12.5906 37.403ZM3.68673 32.5129C2.93104 32.0539 2.21616 31.6055 1.54302 31.1693L0.45542 32.8478C1.14586 33.2952 1.87726 33.7539 2.64857 34.2223L3.68673 32.5129Z" fill="#3698C8"/>
</svg>