<svg xmlns="http://www.w3.org/2000/svg" width="10" height="10" viewBox="0 0 10 10" fill="none">
  <path fill-rule="evenodd" clip-rule="evenodd" d="M1.48552 0H7.91754C8.16335 0 8.36819 0.0418636 8.614 0.167455C8.90078 0.293047 9.06466 0.502366 9.14659 0.669821C9.14659 0.669821 9.14659 0.711685 9.18756 0.711685C9.31047 0.921004 9.3924 1.17219 9.3924 1.46523C9.3924 1.71642 9.35143 1.9676 9.18756 2.21878L5.1317 9.33563C5.04976 9.50308 4.88589 9.58681 4.68105 9.58681C4.51717 9.58681 4.3533 9.50308 4.23039 9.33563L0.256467 2.21878C0.174531 2.05133 0.0106571 1.84201 0.0106571 1.5071C-0.0303112 1.21405 0.0516252 0.962868 0.17453 0.711685C0.297435 0.460502 0.502277 0.251183 0.789055 0.167455C1.03487 -1.62193e-07 1.32164 0 1.48552 0ZM4.18943 1.00473H1.48552C1.32164 1.00473 1.23971 1.00473 1.19874 1.0466C1.1168 1.08846 1.07583 1.13032 1.03487 1.21405C0.993897 1.25591 0.993897 1.33964 0.993897 1.42337C0.993897 1.46523 1.03486 1.5071 1.1168 1.67455L4.18943 7.11685V1.00473ZM5.17267 1.00473V7.15871L8.28626 1.67455C8.32723 1.59082 8.32723 1.5071 8.32723 1.42337C8.32723 1.33964 8.32723 1.25591 8.28626 1.21405C8.24529 1.17219 8.24529 1.13032 8.20432 1.13032L8.16335 1.08846C8.08142 1.0466 7.99948 1.0466 7.87657 1.0466H5.17267V1.00473Z" fill="#A7E2FF"/>
</svg>