<svg width="89" height="90" fill="none" xmlns="http://www.w3.org/2000/svg"><rect x=".203" y=".293" width="24.863" height="24.863" rx="4" fill="#037DB7"/><rect x=".203" y="32.433" width="24.863" height="24.863" rx="4" fill="#037DB7"/><rect x=".203" y="77.914" width="10.915" height="10.915" rx="4" fill="#54CCFF"/><rect x="14.15" y="77.914" width="10.915" height="10.915" rx="4" fill="#037DB7"/><rect x=".203" y="63.966" width="10.915" height="10.915" rx="4" fill="#54CCFF"/><rect x="14.15" y="63.966" width="10.915" height="10.915" rx="4" fill="#037DB7"/><rect x="31.736" y=".293" width="24.863" height="24.863" rx="4" fill="#037DB7"/><rect x="31.933" y="64.24" width="24.863" height="24.863" rx="4" fill="#037DB7"/><rect x="63.663" y=".293" width="24.863" height="24.863" rx="4" fill="#037DB7"/><rect x="63.663" y="32.266" width="24.863" height="24.863" rx="4" fill="#037DB7"/><rect x="63.663" y="64.24" width="24.863" height="24.863" rx="4" fill="#037DB7"/><path fill-rule="evenodd" clip-rule="evenodd" d="M36.594 32.433h15.78c.603 0 1.106.103 1.709.413a2.61 2.61 0 011.306 1.24s0 .102.101.102a3.64 3.64 0 01.503 1.86c0 .62-.1 1.239-.503 1.858l-9.95 17.557c-.202.413-.604.62-1.106.62-.402 0-.804-.207-1.106-.62l-9.75-17.557c-.2-.413-.603-.929-.603-1.755-.1-.723.1-1.343.402-1.963.302-.62.804-1.136 1.508-1.342.603-.413 1.306-.413 1.709-.413zm6.633 2.478h-6.633c-.403 0-.604 0-.704.104a.797.797 0 00-.402.413c-.1.103-.1.31-.1.516 0 .103.1.207.301.62l7.538 13.426V34.91zm2.413 0v15.182l7.639-13.53c.1-.206.1-.412.1-.619 0-.206 0-.413-.1-.516-.1-.103-.1-.207-.201-.207l-.1-.103c-.202-.103-.403-.103-.704-.103H45.64v-.104z" fill="#54CCFF"/></svg>