<svg xmlns="http://www.w3.org/2000/svg" width="70" height="70" fill="none"><rect width="70" height="70" rx="2" fill="#187BB2"/><path d="M17 49.439c0-.538.439-.975.98-.975h2.49c.54 0 .979.437.979.975v2.475a.977.977 0 01-.98.975h-2.49a.977.977 0 01-.979-.975V49.44zm0-5.654c0-.538.439-.974.98-.974h2.49c.54 0 .979.436.979.974v2.476a.977.977 0 01-.98.974h-2.49a.977.977 0 01-.979-.974v-2.476z" fill="#A7E2FF"/><path d="M22.685 49.439c0-.538.439-.975.98-.975h2.489c.541 0 .98.437.98.975v2.475a.977.977 0 01-.98.975h-2.49a.977.977 0 01-.98-.975V49.44zm0-5.654c0-.538.439-.974.98-.974h2.489c.541 0 .98.436.98.974v2.476a.977.977 0 01-.98.974h-2.49a.977.977 0 01-.98-.974v-2.476zM17 17.975c0-.539.439-.975.98-.975h8.174c.541 0 .98.436.98.975v8.129a.977.977 0 01-.98.974H17.98a.977.977 0 01-.98-.974v-8.13zm0 13.028c0-.538.439-.975.98-.975h8.174c.541 0 .98.437.98.975v8.13a.977.977 0 01-.98.974H17.98a.977.977 0 01-.98-.975v-8.13zm12.853-13.028c0-.539.438-.975.98-.975h8.174c.54 0 .98.436.98.975v8.129a.977.977 0 01-.98.974h-8.174a.977.977 0 01-.98-.974v-8.13zm.08 25.921c0-.538.439-.974.98-.974h8.174c.541 0 .98.436.98.974v8.13a.977.977 0 01-.98.974h-8.174a.977.977 0 01-.98-.975v-8.129zm12.933-25.921c0-.539.439-.975.98-.975h8.174c.541 0 .98.436.98.975v8.129a.977.977 0 01-.98.974h-8.174a.977.977 0 01-.98-.974v-8.13zm0 12.96c0-.538.439-.974.98-.974h8.174c.541 0 .98.436.98.974v8.13a.977.977 0 01-.98.974h-8.174a.977.977 0 01-.98-.974v-8.13zm0 12.961c0-.538.439-.974.98-.974h8.174c.541 0 .98.436.98.974v8.13a.977.977 0 01-.98.974h-8.174a.977.977 0 01-.98-.975v-8.129z" fill="#fff"/><path fill-rule="evenodd" clip-rule="evenodd" d="M31.833 30.028h6.432c.245 0 .45.042.696.168.287.125.45.335.533.502 0 0 0 .042.04.042.124.21.206.46.206.754 0 .25-.041.502-.205.753l-4.056 7.117c-.082.167-.246.251-.45.251a.563.563 0 01-.451-.251l-3.974-7.117c-.082-.167-.246-.377-.246-.712-.041-.293.04-.544.164-.795.123-.251.327-.46.614-.544.246-.168.533-.168.697-.168zm2.704 1.005h-2.704c-.164 0-.246 0-.287.042a.324.324 0 00-.164.167c-.04.042-.04.126-.04.21 0 .042.04.083.122.25l3.073 5.443v-6.112zm.983 0v6.154l3.113-5.484a.542.542 0 00.041-.251c0-.084 0-.168-.04-.21-.041-.041-.041-.083-.083-.083l-.04-.042c-.082-.042-.164-.042-.287-.042H35.52v-.042z" fill="#A7E2FF"/></svg>