<svg xmlns="http://www.w3.org/2000/svg" width="259" height="55" viewBox="0 0 259 55" fill="none">
  <path d="M14.3308 39.5275C14.3308 44 13.267 47.3645 11.1395 49.6209C9.05209 51.9176 6.04142 53.7106 2.10747 55L0 49.2582C1.76626 48.5733 3.09096 47.7875 3.97409 46.9011C4.89736 46.0549 5.51957 45.0476 5.8407 43.8791C6.16184 42.6703 6.32241 41.119 6.32241 39.2253V3.86813H14.3308V39.5275Z" fill="#187BB2"/>
  <path d="M49.0453 45.6319H42.3616L41.9401 41.1593C40.776 42.9725 39.391 44.3223 37.7854 45.2088C36.2198 46.0952 34.3532 46.5385 32.1855 46.5385C29.3354 46.5385 27.1276 45.6722 25.562 43.9396C24.0366 42.1667 23.2739 39.7289 23.2739 36.6264V13.6593H30.9812V35.6593C30.9812 37.4725 31.2823 38.7619 31.8844 39.5275C32.5267 40.293 33.5303 40.6758 34.8951 40.6758C37.3438 40.6758 39.4914 39.1648 41.3379 36.1429V13.6593H49.0453V45.6319Z" fill="#187BB2"/>
  <path d="M68.3827 12.7527C72.6779 12.7527 76.4513 14.022 79.7029 16.5604L76.6922 21.0934C73.9625 19.3608 71.293 18.4945 68.6838 18.4945C67.1584 18.4945 65.9742 18.7967 65.1312 19.4011C64.2882 19.9652 63.8667 20.7308 63.8667 21.6978C63.8667 22.4231 64.0473 23.0275 64.4086 23.511C64.7699 23.9945 65.4122 24.4579 66.3355 24.9011C67.2989 25.304 68.7039 25.7674 70.5504 26.2912C74.0026 27.2179 76.5517 28.4469 78.1975 29.978C79.8835 31.5092 80.7265 33.6447 80.7265 36.3846C80.7265 39.5678 79.4419 42.0659 76.8728 43.8791C74.3037 45.652 71.1124 46.5385 67.2989 46.5385C64.6896 46.5385 62.3012 46.1355 60.1335 45.3297C58.0059 44.5238 56.1594 43.4157 54.5938 42.0055L58.4475 37.6538C61.2173 39.7491 64.1076 40.7967 67.1182 40.7967C68.8444 40.7967 70.2092 40.4542 71.2128 39.7692C72.2565 39.0843 72.7783 38.1374 72.7783 36.9286C72.7783 36.0018 72.5776 35.2766 72.1762 34.7527C71.8149 34.1886 71.1325 33.7051 70.1289 33.3022C69.1655 32.859 67.6401 32.3352 65.5527 31.7308C62.3012 30.8443 59.9127 29.6154 58.3873 28.044C56.8619 26.4322 56.0992 24.4377 56.0992 22.0604C56.0992 20.2875 56.601 18.696 57.6045 17.2857C58.6482 15.8755 60.0933 14.7674 61.9399 13.9615C63.8266 13.1557 65.9742 12.7527 68.3827 12.7527Z" fill="#187BB2"/>
  <path d="M105.208 44.1209C104.084 44.9267 102.82 45.5311 101.415 45.9341C100.05 46.337 98.6451 46.5385 97.2 46.5385C94.0689 46.4982 91.6805 45.6117 90.0346 43.8791C88.4289 42.1062 87.6261 39.5073 87.6261 36.0824V19.2198H82.6284V13.6593H87.6261V6.58791L95.3334 5.68132V13.6593H102.74L101.957 19.2198H95.3334V35.9011C95.3334 37.4725 95.5943 38.6007 96.1162 39.2857C96.6782 39.9707 97.5412 40.3132 98.7054 40.3132C99.8695 40.3132 101.134 39.9304 102.499 39.1648L105.208 44.1209Z" fill="#187BB2"/>
  <path d="M117.752 3.86813V39.1044H134.432L133.528 45.6319H109.804V3.86813H117.752Z" fill="black"/>
  <path d="M162.978 37.1703C162.978 38.4194 163.159 39.3462 163.52 39.9506C163.922 40.5147 164.544 40.9579 165.387 41.2802L163.761 46.4176C161.955 46.2564 160.469 45.8132 159.305 45.0879C158.181 44.3626 157.318 43.2546 156.716 41.7637C155.632 43.3755 154.267 44.5842 152.622 45.3901C151.016 46.1557 149.21 46.5385 147.202 46.5385C144.031 46.5385 141.522 45.6319 139.676 43.8187C137.829 42.0055 136.906 39.6282 136.906 36.6868C136.906 33.2216 138.15 30.5824 140.639 28.7692C143.168 26.9158 146.761 25.989 151.417 25.989H155.391V24.1758C155.391 22.1209 154.91 20.6905 153.946 19.8846C153.023 19.0385 151.518 18.6154 149.43 18.6154C147.102 18.6154 144.292 19.1795 141 20.3077L139.194 15.0494C143.168 13.5183 147.022 12.7527 150.755 12.7527C158.904 12.7527 162.978 16.4194 162.978 23.7527V37.1703ZM149.25 40.9176C151.859 40.9176 153.906 39.6081 155.391 36.989V30.522H152.2C147.223 30.522 144.734 32.3755 144.734 36.0824C144.734 37.6136 145.115 38.8022 145.878 39.6484C146.64 40.4945 147.764 40.9176 149.25 40.9176Z" fill="black"/>
  <path d="M197.014 13.6593L186.657 45.6319H177.445L166.907 13.6593H175.277L182.081 39.4066L189.066 13.6593H197.014Z" fill="black"/>
  <path d="M209.473 0V45.6319H201.765V0.846154L209.473 0ZM228.56 13.6593L217.963 27.7418L229.584 45.6319H220.732L209.774 28.1648L220.431 13.6593H228.56Z" fill="black"/>
  <path d="M256.591 37.1703C256.591 38.4194 256.772 39.3462 257.133 39.9506C257.535 40.5147 258.157 40.9579 259 41.2802L257.374 46.4176C255.568 46.2564 254.083 45.8132 252.918 45.0879C251.794 44.3626 250.931 43.2546 250.329 41.7637C249.245 43.3755 247.881 44.5842 246.235 45.3901C244.629 46.1557 242.823 46.5385 240.816 46.5385C237.644 46.5385 235.135 45.6319 233.289 43.8187C231.442 42.0055 230.519 39.6282 230.519 36.6868C230.519 33.2216 231.763 30.5824 234.252 28.7692C236.781 26.9158 240.374 25.989 245.03 25.989H249.005V24.1758C249.005 22.1209 248.523 20.6905 247.559 19.8846C246.636 19.0385 245.131 18.6154 243.043 18.6154C240.715 18.6154 237.905 19.1795 234.614 20.3077L232.807 15.0494C236.781 13.5183 240.635 12.7527 244.368 12.7527C252.517 12.7527 256.591 16.4194 256.591 23.7527V37.1703ZM242.863 40.9176C245.472 40.9176 247.519 39.6081 249.005 36.989V30.522H245.813C240.836 30.522 238.347 32.3755 238.347 36.0824C238.347 37.6136 238.728 38.8022 239.491 39.6484C240.254 40.4945 241.378 40.9176 242.863 40.9176Z" fill="black"/>
</svg>