<svg viewBox="0 0 562 1080" xmlns="http://www.w3.org/2000/svg" xmlns:xlink="http://www.w3.org/1999/xlink"><style>:root&gt;svg{display:none}:root&gt;svg:target{display:block}</style><svg fill="none" viewBox="0 0 10 10" id="css--header--header-icon" xmlns="http://www.w3.org/2000/svg"><path fill-rule="evenodd" clip-rule="evenodd" d="M1.486 0h6.432c.245 0 .45.042.696.167.287.126.45.335.533.503 0 0 0 .042.04.042.123.209.205.46.205.753 0 .251-.04.503-.204.754L5.132 9.336c-.082.167-.246.25-.45.25a.563.563 0 01-.452-.25L.256 2.219C.175 2.05.011 1.842.011 1.507-.03 1.214.05.963.175.712.297.46.502.252.789.167 1.035 0 1.322 0 1.486 0zm2.703 1.005H1.486c-.164 0-.246 0-.287.042a.323.323 0 00-.164.167c-.041.042-.041.126-.041.21 0 .041.04.083.123.25l3.072 5.443V1.005zm.984 0v6.154l3.113-5.484c.041-.084.041-.168.041-.252 0-.083 0-.167-.04-.209-.042-.042-.042-.084-.083-.084l-.04-.042c-.083-.041-.165-.041-.287-.041H5.173v-.042z" fill="#A7E2FF"/></svg><svg fill="none" viewBox="0 0 36 36" id="css--logo" xmlns="http://www.w3.org/2000/svg"><path d="M0 32.439c0-.538.439-.975.98-.975h2.49c.54 0 .979.437.979.975v2.475a.977.977 0 01-.98.975H.98a.977.977 0 01-.98-.975V32.44zm0-5.654c0-.538.439-.974.98-.974h2.49c.54 0 .979.436.979.974v2.476a.977.977 0 01-.98.974H.98a.977.977 0 01-.98-.974v-2.476z" fill="#A7E2FF"/><path d="M5.685 32.439c0-.538.439-.975.98-.975h2.489c.541 0 .98.437.98.975v2.475a.977.977 0 01-.98.975h-2.49a.977.977 0 01-.98-.975V32.44zm0-5.654c0-.538.439-.974.98-.974h2.489c.541 0 .98.436.98.974v2.476a.977.977 0 01-.98.974h-2.49a.977.977 0 01-.98-.974v-2.476zM0 .975C0 .436.439 0 .98 0h8.174c.541 0 .98.436.98.975v8.129a.977.977 0 01-.98.974H.98A.977.977 0 010 9.104V.974zm0 13.028c0-.538.439-.975.98-.975h8.174c.541 0 .98.437.98.975v8.13a.977.977 0 01-.98.974H.98a.977.977 0 01-.98-.975v-8.13zM12.853.975c0-.539.438-.975.98-.975h8.174c.54 0 .98.436.98.975v8.129a.977.977 0 01-.98.974h-8.174a.977.977 0 01-.98-.974V.974zm.08 25.921c0-.538.439-.974.98-.974h8.174c.541 0 .98.436.98.974v8.13a.977.977 0 01-.98.974h-8.174a.977.977 0 01-.98-.975v-8.129zM25.866.975c0-.539.439-.975.98-.975h8.174c.541 0 .98.436.98.975v8.129a.977.977 0 01-.98.974h-8.174a.977.977 0 01-.98-.974V.974zm0 12.96c0-.538.439-.974.98-.974h8.174c.541 0 .98.436.98.974v8.13a.977.977 0 01-.98.974h-8.174a.977.977 0 01-.98-.974v-8.13zm0 12.961c0-.538.439-.974.98-.974h8.174c.541 0 .98.436.98.974v8.13a.977.977 0 01-.98.974h-8.174a.977.977 0 01-.98-.975v-8.129z" fill="#fff"/><path fill-rule="evenodd" clip-rule="evenodd" d="M14.833 13.028h6.432c.245 0 .45.042.696.168.287.125.45.335.533.502 0 0 0 .042.04.042.124.21.206.46.206.754 0 .25-.041.502-.205.753l-4.056 7.117c-.082.167-.246.251-.45.251a.563.563 0 01-.451-.251l-3.974-7.117c-.082-.167-.246-.377-.246-.712-.041-.293.04-.544.164-.795.123-.251.327-.46.614-.544.246-.168.533-.168.697-.168zm2.704 1.005h-2.704c-.164 0-.246 0-.287.042a.323.323 0 00-.164.167c-.041.042-.041.126-.041.21 0 .042.041.083.123.25l3.072 5.443v-6.112zm.983 0v6.154l3.113-5.484a.542.542 0 00.041-.251c0-.084 0-.168-.04-.21-.042-.042-.042-.083-.083-.083l-.04-.042c-.082-.042-.164-.042-.287-.042H18.52v-.042z" fill="#A7E2FF"/></svg><svg fill="none" viewBox="0 0 411 360" id="css--plane" xmlns="http://www.w3.org/2000/svg"><path d="M108.523 213.479l36.17 110.625a11.745 11.745 0 0013.534 7.865 11.745 11.745 0 005.102-2.438l108.001-89.186s-114.77-44.727-114.77-42.312c0 2.416-48.037 15.446-48.037 15.446z" fill="#B5D1DB"/><path d="M393.524.877C322.975 28.787 95.284 122.236 9.11 157.42a13.149 13.149 0 00-5.454 20.178 13.157 13.157 0 006.498 4.542l98.399 31.338 36.05 110.327a11.93 11.93 0 009.214 8.051c3.31.626 8.2-89.305 8.2-89.305s103.439 76.722 152.489 112.951a20.452 20.452 0 0019.577 2.566 20.447 20.447 0 0012.627-15.179L410.341 14.89a12.449 12.449 0 00-.475-6.584 12.463 12.463 0 00-16.342-7.43z" fill="#fff"/><path d="M153.787 331.827c3.31.626 8.2-89.305 8.2-89.305L331.95 82.906a1.31 1.31 0 00.186-1.782 1.312 1.312 0 00-1.766-.305l-221.847 132.66 36.05 110.327a11.927 11.927 0 009.214 8.021z" fill="#D6E2EA"/></svg><svg fill="none" viewBox="0 0 206 1080" id="css--promo--promo-big-curve" xmlns="http://www.w3.org/2000/svg"><path d="M150-17.5C88 0 1.5 122 1.5 275c0 198.5 148.5 357.5 190 510.5C239.164 961.225 139.667 1093 67 1143" stroke="#fff" stroke-width="3" stroke-linecap="round" stroke-linejoin="round" stroke-dasharray="5 5"/></svg><svg fill="none" viewBox="0 0 562 319" id="css--promo--promo-small-curve" xmlns="http://www.w3.org/2000/svg"><path d="M2 357.366c116.708-.358 271.881-66.166 303.011-192.535 12.583-51.019 1.401-105.646-39.032-142.858-51.078-47.053-107.166-4.056-93.36 61.574C195.281 191.399 327.017 271.4 427.116 272.384c57.877.656 112.145-27.074 132.958-83.788" stroke="#fff" stroke-width="3" stroke-miterlimit="10" stroke-linecap="round" stroke-dasharray="5 5"/></svg><svg fill="none" viewBox="0 0 259 55" id="css--promo--promo-title" xmlns="http://www.w3.org/2000/svg"><path d="M14.33 39.528c0 4.472-1.063 7.837-3.19 10.093C9.052 51.918 6.04 53.71 2.107 55L0 49.258c1.766-.685 3.091-1.47 3.974-2.357.923-.846 1.546-1.853 1.867-3.022.32-1.209.481-2.76.481-4.654V3.868h8.009v35.66zm34.715 6.104h-6.683l-.422-4.473c-1.164 1.813-2.549 3.163-4.155 4.05-1.565.886-3.432 1.33-5.6 1.33-2.85 0-5.057-.867-6.623-2.6-1.525-1.772-2.288-4.21-2.288-7.313V13.66h7.707v22c0 1.813.301 3.103.903 3.869.643.765 1.646 1.148 3.011 1.148 2.449 0 4.596-1.511 6.443-4.533V13.659h7.707v31.973zm19.338-32.879c4.295 0 8.068 1.269 11.32 3.807l-3.01 4.533c-2.73-1.732-5.4-2.599-8.01-2.599-1.525 0-2.709.303-3.552.907-.843.564-1.264 1.33-1.264 2.297 0 .725.18 1.33.542 1.813.36.483 1.003.947 1.926 1.39.964.403 2.369.866 4.215 1.39 3.453.927 6.002 2.156 7.648 3.687 1.686 1.531 2.529 3.667 2.529 6.407 0 3.183-1.285 5.68-3.854 7.494-2.57 1.773-5.76 2.66-9.574 2.66-2.61 0-4.998-.404-7.166-1.21-2.127-.805-3.974-1.913-5.54-3.324l3.854-4.351c2.77 2.095 5.66 3.143 8.671 3.143 1.726 0 3.091-.343 4.095-1.028 1.044-.685 1.565-1.632 1.565-2.84 0-.927-.2-1.652-.602-2.176-.361-.564-1.044-1.048-2.047-1.45-.964-.444-2.489-.968-4.576-1.572-3.252-.887-5.64-2.116-7.166-3.687-1.525-1.612-2.288-3.606-2.288-5.984 0-1.772.502-3.364 1.506-4.774 1.043-1.41 2.488-2.519 4.335-3.325 1.887-.805 4.034-1.208 6.443-1.208zm36.825 31.367a12.246 12.246 0 01-3.793 1.814 14.81 14.81 0 01-4.215.605c-3.131-.04-5.52-.927-7.165-2.66-1.606-1.773-2.409-4.372-2.409-7.797V19.22h-4.998v-5.56h4.998V6.587l7.707-.907v7.978h7.407l-.783 5.56h-6.624V35.9c0 1.571.261 2.7.783 3.385.562.685 1.425 1.027 2.59 1.027 1.163 0 2.428-.383 3.793-1.148l2.709 4.956z" fill="#187BB2"/><path d="M117.752 3.868v35.236h16.68l-.904 6.528h-23.724V3.868h7.948zm45.226 33.302c0 1.25.181 2.176.542 2.78.402.565 1.024 1.008 1.867 1.33l-1.626 5.138c-1.806-.162-3.292-.605-4.456-1.33-1.124-.725-1.987-1.833-2.589-3.324-1.084 1.611-2.449 2.82-4.094 3.626-1.606.766-3.412 1.148-5.42 1.148-3.171 0-5.68-.906-7.526-2.72-1.847-1.813-2.77-4.19-2.77-7.131 0-3.465 1.244-6.105 3.733-7.918 2.529-1.853 6.122-2.78 10.778-2.78h3.974v-1.813c0-2.055-.481-3.485-1.445-4.291-.923-.847-2.428-1.27-4.516-1.27-2.328 0-5.138.565-8.43 1.693l-1.806-5.259c3.974-1.53 7.828-2.296 11.561-2.296 8.149 0 12.223 3.666 12.223 11V37.17zm-13.728 3.748c2.609 0 4.656-1.31 6.141-3.929v-6.467H152.2c-4.977 0-7.466 1.854-7.466 5.56 0 1.532.381 2.72 1.144 3.566.762.846 1.886 1.27 3.372 1.27zm47.764-27.258l-10.357 31.972h-9.212l-10.538-31.973h8.37l6.804 25.748 6.985-25.748h7.948zM209.473 0v45.632h-7.708V.846L209.473 0zm19.087 13.66l-10.597 14.082 11.621 17.89h-8.852l-10.958-17.467 10.657-14.506h8.129zm28.031 23.51c0 1.25.181 2.176.542 2.78.402.565 1.024 1.008 1.867 1.33l-1.626 5.138c-1.806-.162-3.291-.605-4.456-1.33-1.124-.725-1.987-1.833-2.589-3.324-1.084 1.611-2.448 2.82-4.094 3.626-1.606.766-3.412 1.148-5.419 1.148-3.172 0-5.681-.906-7.527-2.72-1.847-1.813-2.77-4.19-2.77-7.131 0-3.465 1.244-6.105 3.733-7.918 2.529-1.853 6.122-2.78 10.778-2.78h3.975v-1.813c0-2.055-.482-3.485-1.446-4.291-.923-.847-2.428-1.27-4.516-1.27-2.328 0-5.138.565-8.429 1.693l-1.807-5.259c3.974-1.53 7.828-2.296 11.561-2.296 8.149 0 12.223 3.666 12.223 11V37.17zm-13.728 3.748c2.609 0 4.656-1.31 6.142-3.929v-6.467h-3.192c-4.977 0-7.466 1.854-7.466 5.56 0 1.532.381 2.72 1.144 3.566.763.846 1.887 1.27 3.372 1.27z" fill="#000"/></svg></svg>