<svg width="398" height="810" viewBox="0 0 398 810" fill="none" xmlns="http://www.w3.org/2000/svg">
<path d="M1.0939 155.677H3.29405L3.29405 186.578H1.0939C0.684948 186.578 0.349609 186.242 0.349609 185.833L0.349609 156.422C0.349609 156.013 0.684948 155.677 1.0939 155.677Z" fill="#EAEAEC"/>
<path d="M327.117 1.24146L70.7707 1.24146C33.5043 1.24146 3.29395 31.4518 3.29395 68.7182L3.29395 741.727C3.29395 778.993 33.5043 809.204 70.7707 809.204H327.117C364.383 809.204 394.593 778.993 394.593 741.727L394.593 68.7182C394.593 31.4518 364.383 1.24146 327.117 1.24146Z" fill="white" stroke="#E0E1E6" stroke-miterlimit="10"/>
<path d="M326.144 5.67444L71.744 5.67444C36.6052 5.67444 8.11963 34.1601 8.11963 69.2989L8.11963 740.042C8.11963 775.181 36.6052 803.666 71.744 803.666H326.144C361.282 803.666 389.768 775.181 389.768 740.042L389.768 69.2989C389.768 34.1601 361.282 5.67444 326.144 5.67444Z" fill="white" stroke="#E0E1E6" stroke-miterlimit="10"/>
<path d="M3.30208 155.677H1.09375L1.09375 186.578H3.30208L3.30208 155.677Z" fill="#E0E1E4"/>
<path d="M1.0939 214.362H3.29405L3.29405 275.508H1.0939C0.684948 275.508 0.349609 275.172 0.349609 274.763L0.349609 215.098C0.349609 214.689 0.684948 214.362 1.0939 214.362Z" fill="#EAEAEC"/>
<path d="M3.30208 214.362H1.09375L1.09375 275.508H3.30208L3.30208 214.362Z" fill="#E0E1E4"/>
<path d="M1.0939 292.316H3.29405L3.29405 353.462H1.0939C0.684948 353.47 0.349609 353.135 0.349609 352.726L0.349609 293.06C0.349609 292.651 0.684948 292.316 1.0939 292.316Z" fill="#EAEAEC"/>
<path d="M3.30208 292.316H1.09375L1.09375 353.462H3.30208L3.30208 292.316Z" fill="#E0E1E4"/>
<path opacity="0.48" d="M326.152 5.67444L71.744 5.67444C36.6071 5.67444 8.11963 34.1537 8.11963 69.2907L8.11963 740.042C8.11963 775.179 36.6071 803.666 71.744 803.666H326.152C361.289 803.666 389.776 775.179 389.776 740.042L389.776 69.2907C389.776 34.1537 361.289 5.66626 326.152 5.66626V5.67444ZM386.505 740.516C386.505 773.38 359.866 800.019 327.002 800.019H70.8852C38.022 800.019 11.383 773.38 11.383 740.516L11.383 68.8245C11.3912 35.9694 38.0302 9.33045 70.8852 9.33045L327.011 9.33045C359.874 9.33045 386.513 35.9694 386.513 68.8326L386.513 740.508L386.505 740.516Z" fill="#EAEAEC"/>
<path d="M396.81 353.429H394.602V256.573H396.81C397.219 256.573 397.554 256.909 397.554 257.318V352.685C397.554 353.094 397.219 353.429 396.81 353.429Z" fill="#EAEAEC"/>
<path d="M394.594 353.429H396.802V256.573H394.594V353.429Z" fill="#E0E1E4"/>
</svg>

