<svg width="399" height="810" viewBox="0 0 399 810" fill="none" xmlns="http://www.w3.org/2000/svg">
<path d="M1.61319 155.743H3.81334L3.81334 186.643H1.61319C1.20424 186.643 0.868896 186.308 0.868896 185.899L0.868896 156.487C0.868896 156.078 1.20424 155.743 1.61319 155.743Z" fill="#EAEAEC"/>
<path d="M327.636 1.30713L71.29 1.30713C34.0236 1.30713 3.81323 31.5175 3.81323 68.7839L3.81323 741.793C3.81323 779.059 34.0236 809.269 71.29 809.269H327.636C364.902 809.269 395.113 779.059 395.113 741.793L395.113 68.7839C395.113 31.5175 364.902 1.30713 327.636 1.30713Z" fill="white" stroke="#E0E1E6" stroke-miterlimit="10"/>
<path d="M326.663 5.74011L72.2633 5.74011C37.1245 5.74011 8.63892 34.2257 8.63892 69.3645L8.63892 740.108C8.63892 775.246 37.1245 803.732 72.2633 803.732H326.663C361.802 803.732 390.287 775.246 390.287 740.108L390.287 69.3645C390.287 34.2257 361.802 5.74011 326.663 5.74011Z" fill="white" stroke="#E0E1E6" stroke-miterlimit="10"/>
<path d="M327.865 17.6897L71.0691 17.6897C43.4062 17.6897 20.981 40.1149 20.981 67.7779L20.981 741.694C20.981 769.357 43.4062 791.783 71.0691 791.783H327.865C355.528 791.783 377.953 769.357 377.953 741.694L377.953 67.7779C377.953 40.1149 355.528 17.6897 327.865 17.6897Z" fill="#EAEAEC"/>
<path d="M3.82137 155.743H1.61304L1.61304 186.643H3.82137L3.82137 155.743Z" fill="#E0E1E4"/>
<path d="M1.61319 214.427H3.81334L3.81334 275.573H1.61319C1.20424 275.573 0.868896 275.238 0.868896 274.829L0.868896 215.163C0.868896 214.754 1.20424 214.427 1.61319 214.427Z" fill="#EAEAEC"/>
<path d="M3.82137 214.427H1.61304L1.61304 275.573H3.82137L3.82137 214.427Z" fill="#E0E1E4"/>
<path d="M1.61319 292.381H3.81334L3.81334 353.527H1.61319C1.20424 353.536 0.868896 353.2 0.868896 352.791L0.868896 293.126C0.868896 292.717 1.20424 292.381 1.61319 292.381Z" fill="#EAEAEC"/>
<path d="M3.82137 292.381H1.61304L1.61304 353.527H3.82137L3.82137 292.381Z" fill="#E0E1E4"/>
<path opacity="0.48" d="M326.671 5.74011L72.2633 5.74011C37.1264 5.74011 8.63892 34.2194 8.63892 69.3563L8.63892 740.108C8.63892 775.245 37.1264 803.732 72.2633 803.732H326.671C361.808 803.732 390.295 775.245 390.295 740.108L390.295 69.3563C390.295 34.2194 361.808 5.73193 326.671 5.73193V5.74011ZM387.024 740.582C387.024 773.445 360.385 800.084 327.522 800.084H71.4045C38.5413 800.084 11.9023 773.445 11.9023 740.582L11.9023 68.8901C11.9105 36.0351 38.5495 9.39612 71.4045 9.39612L327.53 9.39612C360.393 9.39612 387.032 36.0351 387.032 68.8983L387.032 740.574L387.024 740.582Z" fill="#EAEAEC"/>
<path d="M397.329 353.495H395.121V256.639H397.329C397.738 256.639 398.074 256.974 398.074 257.383V352.75C398.074 353.159 397.738 353.495 397.329 353.495Z" fill="#EAEAEC"/>
<path d="M395.113 353.495H397.321V256.639H395.113V353.495Z" fill="#E0E1E4"/>
</svg>
