<svg xmlns="http://www.w3.org/2000/svg" width="36" height="36" viewBox="0 0 36 36" fill="none">
  <path d="M0 32.4389C0 31.9007 0.438728 31.4643 0.979926 31.4643H3.46911C4.01031 31.4643 4.44903 31.9007 4.44903 32.4389V34.9145C4.44903 35.4527 4.01031 35.889 3.46911 35.889H0.979925C0.438727 35.889 0 35.4527 0 34.9145V32.4389Z" fill="#A7E2FF"/>
  <path d="M0 26.7851C0 26.2469 0.438728 25.8105 0.979926 25.8105H3.46911C4.01031 25.8105 4.44903 26.2469 4.44903 26.7851V29.2607C4.44903 29.7989 4.01031 30.2352 3.46911 30.2352H0.979925C0.438727 30.2352 0 29.7989 0 29.2607V26.7851Z" fill="#A7E2FF"/>
  <path d="M5.68488 32.4389C5.68488 31.9007 6.1236 31.4643 6.6648 31.4643H9.15398C9.69518 31.4643 10.1339 31.9007 10.1339 32.4389V34.9145C10.1339 35.4527 9.69518 35.889 9.15398 35.889H6.6648C6.1236 35.889 5.68488 35.4527 5.68488 34.9145V32.4389Z" fill="white"/>
  <path d="M5.68488 26.7851C5.68488 26.2469 6.1236 25.8105 6.6648 25.8105H9.15398C9.69518 25.8105 10.1339 26.2469 10.1339 26.7851V29.2607C10.1339 29.7989 9.69518 30.2352 9.15398 30.2352H6.6648C6.1236 30.2352 5.68488 29.7989 5.68488 29.2607V26.7851Z" fill="white"/>
  <path d="M0 0.974564C0 0.436328 0.438728 0 0.979926 0H9.15398C9.69518 0 10.1339 0.436326 10.1339 0.974562V9.10388C10.1339 9.64212 9.69518 10.0784 9.15398 10.0784H0.979927C0.438729 10.0784 0 9.64212 0 9.10388V0.974564Z" fill="white"/>
  <path d="M0 14.0028C0 13.4646 0.438728 13.0282 0.979926 13.0282H9.15398C9.69518 13.0282 10.1339 13.4646 10.1339 14.0028V22.1321C10.1339 22.6703 9.69518 23.1067 9.15398 23.1067H0.979927C0.438729 23.1067 0 22.6703 0 22.1321V14.0028Z" fill="white"/>
  <path d="M12.8528 0.974564C12.8528 0.436328 13.2915 0 13.8327 0H22.0067C22.5479 0 22.9867 0.436326 22.9867 0.974562V9.10388C22.9867 9.64212 22.5479 10.0784 22.0067 10.0784H13.8327C13.2915 10.0784 12.8528 9.64212 12.8528 9.10388V0.974564Z" fill="white"/>
  <path d="M12.9331 26.8961C12.9331 26.3579 13.3718 25.9216 13.913 25.9216H22.0871C22.6283 25.9216 23.067 26.3579 23.067 26.8961V35.0254C23.067 35.5637 22.6283 36 22.0871 36H13.913C13.3718 36 12.9331 35.5637 12.9331 35.0254V26.8961Z" fill="white"/>
  <path d="M25.8661 0.974564C25.8661 0.436328 26.3048 0 26.846 0H35.0201C35.5613 0 36 0.436326 36 0.974562V9.10388C36 9.64212 35.5613 10.0784 35.0201 10.0784H26.846C26.3048 10.0784 25.8661 9.64212 25.8661 9.10388V0.974564Z" fill="white"/>
  <path d="M25.8661 13.9353C25.8661 13.3971 26.3048 12.9608 26.846 12.9608H35.0201C35.5613 12.9608 36 13.3971 36 13.9353V22.0647C36 22.6029 35.5613 23.0392 35.0201 23.0392H26.846C26.3048 23.0392 25.8661 22.6029 25.8661 22.0647V13.9353Z" fill="white"/>
  <path d="M25.8661 26.8961C25.8661 26.3579 26.3048 25.9216 26.846 25.9216H35.0201C35.5613 25.9216 36 26.3579 36 26.8961V35.0254C36 35.5637 35.5613 36 35.0201 36H26.846C26.3048 36 25.8661 35.5637 25.8661 35.0254V26.8961Z" fill="white"/>
  <path fill-rule="evenodd" clip-rule="evenodd" d="M14.8326 13.0283H21.2647C21.5105 13.0283 21.7153 13.0702 21.9611 13.1958C22.2479 13.3214 22.4118 13.5307 22.4937 13.6981C22.4937 13.6981 22.4937 13.74 22.5347 13.74C22.6576 13.9493 22.7395 14.2005 22.7395 14.4936C22.7395 14.7447 22.6985 14.9959 22.5347 15.2471L18.4788 22.3639C18.3969 22.5314 18.233 22.6151 18.0282 22.6151C17.8643 22.6151 17.7004 22.5314 17.5775 22.3639L13.6036 15.2471C13.5216 15.0796 13.3578 14.8703 13.3578 14.5354C13.3168 14.2424 13.3987 13.9912 13.5216 13.74C13.6445 13.4888 13.8494 13.2795 14.1362 13.1958C14.382 13.0283 14.6688 13.0283 14.8326 13.0283ZM17.5365 14.0331H14.8326C14.6688 14.0331 14.5868 14.0331 14.5458 14.0749C14.4639 14.1168 14.4229 14.1586 14.382 14.2424C14.341 14.2842 14.341 14.368 14.341 14.4517C14.341 14.4936 14.382 14.5354 14.4639 14.7029L17.5365 20.1452V14.0331ZM18.5198 14.0331V20.187L21.6334 14.7029C21.6743 14.6191 21.6743 14.5354 21.6743 14.4517C21.6743 14.368 21.6743 14.2842 21.6334 14.2424C21.5924 14.2005 21.5924 14.1586 21.5514 14.1586L21.5105 14.1168C21.4285 14.0749 21.3466 14.0749 21.2237 14.0749H18.5198V14.0331Z" fill="#A7E2FF"/>
</svg>