<svg width="411" height="360" viewBox="0 0 411 360" fill="none" xmlns="http://www.w3.org/2000/svg">
<path d="M108.523 213.479L144.693 324.104C145.286 325.923 146.314 327.569 147.688 328.9C149.062 330.231 150.741 331.206 152.577 331.741C154.414 332.276 156.353 332.354 158.227 331.969C160.101 331.584 161.852 330.747 163.329 329.531L271.33 240.345C271.33 240.345 156.56 195.618 156.56 198.033C156.56 200.449 108.523 213.479 108.523 213.479Z" fill="#B5D1DB"/>
<path d="M393.524 0.876767C322.975 28.7865 95.2841 122.236 9.10998 157.421C6.60572 158.445 4.47828 160.217 3.01779 162.495C1.5573 164.772 0.834839 167.445 0.948964 170.148C1.06309 172.851 2.00824 175.453 3.6555 177.599C5.30276 179.745 7.57193 181.331 10.1536 182.141L108.553 213.479L144.603 323.806C145.269 325.855 146.477 327.686 148.099 329.103C149.721 330.521 151.697 331.472 153.817 331.857C157.127 332.483 162.017 242.552 162.017 242.552C162.017 242.552 265.456 319.274 314.506 355.503C317.288 357.548 320.542 358.856 323.965 359.304C327.388 359.753 330.869 359.328 334.083 358.069C337.298 356.81 340.142 354.758 342.349 352.104C344.557 349.45 346.057 346.28 346.71 342.89L410.341 14.8912C410.778 12.6937 410.614 10.4192 409.866 8.30703C409.119 6.19487 407.817 4.32317 406.095 2.88888C404.374 1.45459 402.298 0.51074 400.086 0.156651C397.874 -0.197437 395.607 0.0513266 393.524 0.876767Z" fill="white"/>
<path d="M153.787 331.827C157.097 332.453 161.987 242.522 161.987 242.522L331.95 82.9061C332.201 82.6879 332.36 82.3825 332.394 82.0516C332.429 81.7207 332.336 81.389 332.136 81.1238C331.935 80.8585 331.641 80.6795 331.313 80.6229C330.985 80.5663 330.648 80.6363 330.37 80.8189L108.523 213.479L144.573 323.806C145.243 325.849 146.454 327.674 148.075 329.086C149.697 330.498 151.671 331.445 153.787 331.827Z" fill="#D6E2EA"/>
</svg>
