<svg xmlns="http://www.w3.org/2000/svg" width="94" height="94" viewBox="0 0 94 94" fill="none">
  <g filter="url(#filter0_d_28_779)">
    <path d="M55.3333 45.3333H60.3333V59.5L69.8667 65.1333L67.3667 69.2L55.3333 62V45.3333ZM58.6667 35.3333C60.9667 35.3333 63.2333 35.6667 65.3333 36.3V21L55.3333 24.8667V35.5667C56.4333 35.3333 57.5333 35.3333 58.6667 35.3333ZM82 58.6667C82 64.855 79.5417 70.79 75.1658 75.1658C70.79 79.5417 64.855 82 58.6667 82C48.6667 82 40 75.6 36.7333 66.6667L32 65L14.2 71.9L13.6667 72C13.2246 72 12.8007 71.8244 12.4882 71.5118C12.1756 71.1993 12 70.7754 12 70.3333V19.9333C12 19.1667 12.5 18.5667 13.2 18.3333L32 12L52 19L69.8 12.1L70.3333 12C70.7754 12 71.1993 12.1756 71.5118 12.4882C71.8244 12.8007 72 13.2246 72 13.6667V39.5C78.0333 43.6667 82 50.7333 82 58.6667ZM35.3333 58.6667C35.3333 49.3667 40.7667 41.3333 48.6667 37.5667V24.9L35.3333 20.2333V59.1V58.6667ZM58.6667 42C54.2464 42 50.0072 43.7559 46.8816 46.8816C43.7559 50.0072 42 54.2464 42 58.6667C42 63.0869 43.7559 67.3262 46.8816 70.4518C50.0072 73.5774 54.2464 75.3333 58.6667 75.3333C63.0869 75.3333 67.3262 73.5774 70.4518 70.4518C73.5774 67.3262 75.3333 63.0869 75.3333 58.6667C75.3333 54.2464 73.5774 50.0072 70.4518 46.8816C67.3262 43.7559 63.0869 42 58.6667 42ZM18.6667 23.5333V63.0333L28.6667 59.1667V20.1667L18.6667 23.5333Z" fill="white"/>
  </g>
  <defs>
    <filter id="filter0_d_28_779" x="0" y="0" width="94" height="94" filterUnits="userSpaceOnUse" color-interpolation-filters="sRGB">
      <feFlood flood-opacity="0" result="BackgroundImageFix"/>
      <feColorMatrix in="SourceAlpha" type="matrix" values="0 0 0 0 0 0 0 0 0 0 0 0 0 0 0 0 0 0 127 0" result="hardAlpha"/>
      <feOffset/>
      <feGaussianBlur stdDeviation="6"/>
      <feComposite in2="hardAlpha" operator="out"/>
      <feColorMatrix type="matrix" values="0 0 0 0 1 0 0 0 0 1 0 0 0 0 1 0 0 0 0.25 0"/>
      <feBlend mode="normal" in2="BackgroundImageFix" result="effect1_dropShadow_28_779"/>
      <feBlend mode="normal" in="SourceGraphic" in2="effect1_dropShadow_28_779" result="shape"/>
    </filter>
  </defs>
</svg>