<svg xmlns="http://www.w3.org/2000/svg" width="94" height="94" viewBox="0 0 94 94" fill="none">
  <g filter="url(#filter0_d_28_782)">
    <path d="M54.9287 79.985C53.5853 81.3283 51.9207 82 49.9349 82C47.9491 82 46.2845 81.3283 44.9412 79.985L14.1026 49.1464C13.4602 48.504 12.9485 47.7447 12.5677 46.8686C12.1869 45.9925 11.9977 45.058 12 44.0651V19.0088C12 17.0814 12.6869 15.4308 14.0606 14.0571C15.4343 12.6834 17.0837 11.9977 19.0088 12H44.0651C45.058 12 45.9925 12.1904 46.8686 12.5712C47.7447 12.952 48.504 13.4625 49.1464 14.1026L79.985 45.0288C81.3283 46.3721 82 48.0227 82 49.9805C82 51.9383 81.3283 53.5877 79.985 54.9287L54.9287 79.985ZM49.9349 75.0788L74.9912 50.0225L44.0651 19.0088H19.0088V44.0651L49.9349 75.0788ZM27.7697 33.0263C29.2299 33.0263 30.4716 32.5146 31.4949 31.4914C32.5182 30.4681 33.0286 29.2275 33.0263 27.7697C33.0263 26.3096 32.5147 25.0678 31.4914 24.0446C30.4681 23.0213 29.2276 22.5108 27.7697 22.5131C26.3096 22.5131 25.0679 23.0248 24.0446 24.0481C23.0213 25.0713 22.5108 26.3119 22.5132 27.7697C22.5132 29.2299 23.0248 30.4716 24.0481 31.4949C25.0714 32.5182 26.3119 33.0286 27.7697 33.0263ZM53.0013 63.8648L62.8135 54.0526C63.456 53.4101 63.9676 52.6508 64.3484 51.7747C64.7292 50.8986 64.9185 49.9641 64.9162 48.9712C64.9162 46.9854 64.2153 45.2916 62.8135 43.8899C61.4118 42.4881 59.718 41.7872 57.7322 41.7872C56.6225 41.7872 55.5268 42.1085 54.4451 42.7509C53.3634 43.3934 52.0644 44.4739 50.5482 45.9925C48.796 44.3571 47.4235 43.2474 46.4305 42.6633C45.4376 42.0793 44.4155 41.7872 43.3642 41.7872C41.3784 41.7872 39.6846 42.4881 38.2829 43.8899C36.8811 45.2916 36.1802 46.9854 36.1802 48.9712C36.1802 49.9641 36.3706 50.8986 36.7515 51.7747C37.1323 52.6508 37.6427 53.4101 38.2829 54.0526L48.0951 63.8648C48.796 64.5657 49.6137 64.9161 50.5482 64.9161C51.4827 64.9161 52.3004 64.5657 53.0013 63.8648Z" fill="white"/>
  </g>
  <defs>
    <filter id="filter0_d_28_782" x="0" y="0" width="94" height="94" filterUnits="userSpaceOnUse" color-interpolation-filters="sRGB">
      <feFlood flood-opacity="0" result="BackgroundImageFix"/>
      <feColorMatrix in="SourceAlpha" type="matrix" values="0 0 0 0 0 0 0 0 0 0 0 0 0 0 0 0 0 0 127 0" result="hardAlpha"/>
      <feOffset/>
      <feGaussianBlur stdDeviation="6"/>
      <feComposite in2="hardAlpha" operator="out"/>
      <feColorMatrix type="matrix" values="0 0 0 0 1 0 0 0 0 1 0 0 0 0 1 0 0 0 0.25 0"/>
      <feBlend mode="normal" in2="BackgroundImageFix" result="effect1_dropShadow_28_782"/>
      <feBlend mode="normal" in="SourceGraphic" in2="effect1_dropShadow_28_782" result="shape"/>
    </filter>
  </defs>
</svg>