<svg xmlns="http://www.w3.org/2000/svg" width="96" height="88" viewBox="0 0 96 88" fill="none">
  <g filter="url(#filter0_d_28_798)">
    <path fill-rule="evenodd" clip-rule="evenodd" d="M32.3142 12.9613C33.5922 14.243 33.5922 16.3211 32.3142 17.6028L22.496 27.449C21.2179 28.7307 19.1457 28.7307 17.8677 27.449L12.9586 22.5259C11.6805 21.2442 11.6805 19.1661 12.9586 17.8844C14.2366 16.6026 16.3088 16.6026 17.5869 17.8844L20.1818 20.4867L27.6858 12.9613C28.9639 11.6796 31.0361 11.6796 32.3142 12.9613ZM38.1818 20.2051C38.1818 18.3925 39.6471 16.9231 41.4545 16.9231H80.7273C82.5347 16.9231 84 18.3925 84 20.2051C84 22.0178 82.5347 23.4872 80.7273 23.4872H41.4545C39.6471 23.4872 38.1818 22.0178 38.1818 20.2051ZM21.8182 39.8974C20.0107 39.8974 18.5455 41.3669 18.5455 43.1795C18.5455 44.9921 20.0107 46.4615 21.8182 46.4615C23.6257 46.4615 25.0909 44.9921 25.0909 43.1795C25.0909 41.3669 23.6257 39.8974 21.8182 39.8974ZM12 43.1795C12 37.7416 16.3957 33.3333 21.8182 33.3333C27.2406 33.3333 31.6364 37.7416 31.6364 43.1795C31.6364 48.6174 27.2406 53.0256 21.8182 53.0256C16.3957 53.0256 12 48.6174 12 43.1795ZM38.1818 43.1795C38.1818 41.3669 39.6471 39.8974 41.4545 39.8974H80.7273C82.5347 39.8974 84 41.3669 84 43.1795C84 44.9921 82.5347 46.4615 80.7273 46.4615H41.4545C39.6471 46.4615 38.1818 44.9921 38.1818 43.1795ZM21.8182 62.8718C20.0107 62.8718 18.5455 64.3412 18.5455 66.1538C18.5455 67.9665 20.0107 69.4359 21.8182 69.4359C23.6257 69.4359 25.0909 67.9665 25.0909 66.1538C25.0909 64.3412 23.6257 62.8718 21.8182 62.8718ZM12 66.1538C12 60.716 16.3957 56.3077 21.8182 56.3077C27.2406 56.3077 31.6364 60.716 31.6364 66.1538C31.6364 71.5917 27.2406 76 21.8182 76C16.3957 76 12 71.5917 12 66.1538ZM38.1818 66.1538C38.1818 64.3412 39.6471 62.8718 41.4545 62.8718H80.7273C82.5347 62.8718 84 64.3412 84 66.1538C84 67.9665 82.5347 69.4359 80.7273 69.4359H41.4545C39.6471 69.4359 38.1818 67.9665 38.1818 66.1538Z" fill="white"/>
  </g>
  <defs>
    <filter id="filter0_d_28_798" x="0" y="0" width="96" height="88" filterUnits="userSpaceOnUse" color-interpolation-filters="sRGB">
      <feFlood flood-opacity="0" result="BackgroundImageFix"/>
      <feColorMatrix in="SourceAlpha" type="matrix" values="0 0 0 0 0 0 0 0 0 0 0 0 0 0 0 0 0 0 127 0" result="hardAlpha"/>
      <feOffset/>
      <feGaussianBlur stdDeviation="6"/>
      <feComposite in2="hardAlpha" operator="out"/>
      <feColorMatrix type="matrix" values="0 0 0 0 1 0 0 0 0 1 0 0 0 0 1 0 0 0 0.25 0"/>
      <feBlend mode="normal" in2="BackgroundImageFix" result="effect1_dropShadow_28_798"/>
      <feBlend mode="normal" in="SourceGraphic" in2="effect1_dropShadow_28_798" result="shape"/>
    </filter>
  </defs>
</svg>