<svg xmlns="http://www.w3.org/2000/svg" width="96" height="96" viewBox="0 0 96 96" fill="none">
  <g filter="url(#filter0_d_28_785)">
    <path d="M76 12H20C17.8783 12 15.8434 12.8429 14.3431 14.3431C12.8429 15.8434 12 17.8783 12 20V76C12 78.1217 12.8429 80.1566 14.3431 81.6569C15.8434 83.1571 17.8783 84 20 84H76C78.1217 84 80.1566 83.1571 81.6569 81.6569C83.1571 80.1566 84 78.1217 84 76V20C84 17.8783 83.1571 15.8434 81.6569 14.3431C80.1566 12.8429 78.1217 12 76 12ZM76 76H20V20H76V76ZM36 68H28V48H36V68ZM52 68H44V40H52V68ZM68 68H60V28H68V68Z" fill="white"/>
  </g>
  <defs>
    <filter id="filter0_d_28_785" x="0" y="0" width="96" height="96" filterUnits="userSpaceOnUse" color-interpolation-filters="sRGB">
      <feFlood flood-opacity="0" result="BackgroundImageFix"/>
      <feColorMatrix in="SourceAlpha" type="matrix" values="0 0 0 0 0 0 0 0 0 0 0 0 0 0 0 0 0 0 127 0" result="hardAlpha"/>
      <feOffset/>
      <feGaussianBlur stdDeviation="6"/>
      <feComposite in2="hardAlpha" operator="out"/>
      <feColorMatrix type="matrix" values="0 0 0 0 1 0 0 0 0 1 0 0 0 0 1 0 0 0 0.25 0"/>
      <feBlend mode="normal" in2="BackgroundImageFix" result="effect1_dropShadow_28_785"/>
      <feBlend mode="normal" in="SourceGraphic" in2="effect1_dropShadow_28_785" result="shape"/>
    </filter>
  </defs>
</svg>