<svg width="36" height="36" viewBox="0 0 36 36" fill="none" xmlns="http://www.w3.org/2000/svg">
<rect width="36" height="36" rx="2" fill="white"/>
<path fill-rule="evenodd" clip-rule="evenodd" d="M26 12.5306L26 23.4876C26 23.9063 25.9301 24.2553 25.7205 24.674C25.5109 25.1625 25.1616 25.4417 24.8821 25.5813C24.8821 25.5813 24.8122 25.5813 24.8122 25.6511C24.4629 25.8604 24.0437 26 23.5546 26C23.1354 26 22.7162 25.9302 22.2969 25.6511L10.4192 18.7419C10.1397 18.6023 10 18.3231 10 17.9742C10 17.695 10.1397 17.4159 10.4192 17.2065L22.2969 10.4369C22.5764 10.2973 22.9258 10.0182 23.4847 10.0182C23.9738 9.94836 24.393 10.0879 24.8122 10.2973C25.2314 10.5067 25.5808 10.8556 25.7205 11.3442C26 11.7629 26 12.2514 26 12.5306ZM24.3231 17.1367L24.3231 12.5306C24.3231 12.2514 24.3231 12.1118 24.2533 12.0421C24.1834 11.9025 24.1135 11.8327 23.9738 11.7629C23.9039 11.6931 23.7642 11.6931 23.6245 11.6931C23.5546 11.6931 23.4847 11.7629 23.2052 11.9025L14.1223 17.1367L24.3231 17.1367ZM24.3231 18.8117L14.0524 18.8117L23.2052 24.1157C23.345 24.1855 23.4847 24.1855 23.6245 24.1855C23.7642 24.1855 23.9039 24.1855 23.9738 24.1157C24.0437 24.0459 24.1135 24.0459 24.1135 23.9761L24.1834 23.9063C24.2533 23.7667 24.2533 23.6271 24.2533 23.4178L24.2533 18.8117L24.3231 18.8117Z" fill="#DD3974"/>
</svg>
