<svg xmlns="http://www.w3.org/2000/svg" width="70" height="70" viewBox="0 0 70 70" fill="none">
  <rect width="70" height="70" rx="2" fill="#187BB2"/>
  <path d="M17 49.4389C17 48.9007 17.4387 48.4643 17.9799 48.4643H20.4691C21.0103 48.4643 21.449 48.9007 21.449 49.4389V51.9145C21.449 52.4527 21.0103 52.889 20.4691 52.889H17.9799C17.4387 52.889 17 52.4527 17 51.9145V49.4389Z" fill="#A7E2FF"/>
  <path d="M17 43.7851C17 43.2469 17.4387 42.8105 17.9799 42.8105H20.4691C21.0103 42.8105 21.449 43.2469 21.449 43.7851V46.2607C21.449 46.7989 21.0103 47.2352 20.4691 47.2352H17.9799C17.4387 47.2352 17 46.7989 17 46.2607V43.7851Z" fill="#A7E2FF"/>
  <path d="M22.6848 49.4389C22.6848 48.9007 23.1235 48.4643 23.6647 48.4643H26.1539C26.6951 48.4643 27.1338 48.9007 27.1338 49.4389V51.9145C27.1338 52.4527 26.6951 52.889 26.1539 52.889H23.6647C23.1235 52.889 22.6848 52.4527 22.6848 51.9145V49.4389Z" fill="white"/>
  <path d="M22.6848 43.7851C22.6848 43.2469 23.1235 42.8105 23.6647 42.8105H26.1539C26.6951 42.8105 27.1338 43.2469 27.1338 43.7851V46.2607C27.1338 46.7989 26.6951 47.2352 26.1539 47.2352H23.6647C23.1235 47.2352 22.6848 46.7989 22.6848 46.2607V43.7851Z" fill="white"/>
  <path d="M17 17.9746C17 17.4363 17.4387 17 17.9799 17H26.154C26.6952 17 27.1339 17.4363 27.1339 17.9746V26.1039C27.1339 26.6421 26.6952 27.0784 26.154 27.0784H17.9799C17.4387 27.0784 17 26.6421 17 26.1039V17.9746Z" fill="white"/>
  <path d="M17 31.0028C17 30.4646 17.4387 30.0282 17.9799 30.0282H26.154C26.6952 30.0282 27.1339 30.4646 27.1339 31.0028V39.1321C27.1339 39.6703 26.6952 40.1067 26.154 40.1067H17.9799C17.4387 40.1067 17 39.6703 17 39.1321V31.0028Z" fill="white"/>
  <path d="M29.8528 17.9746C29.8528 17.4363 30.2915 17 30.8327 17H39.0067C39.5479 17 39.9867 17.4363 39.9867 17.9746V26.1039C39.9867 26.6421 39.5479 27.0784 39.0067 27.0784H30.8327C30.2915 27.0784 29.8528 26.6421 29.8528 26.1039V17.9746Z" fill="white"/>
  <path d="M29.9331 43.8961C29.9331 43.3579 30.3718 42.9216 30.913 42.9216H39.0871C39.6283 42.9216 40.067 43.3579 40.067 43.8961V52.0254C40.067 52.5637 39.6283 53 39.0871 53H30.913C30.3718 53 29.9331 52.5637 29.9331 52.0254V43.8961Z" fill="white"/>
  <path d="M42.8661 17.9746C42.8661 17.4363 43.3048 17 43.846 17H52.0201C52.5613 17 53 17.4363 53 17.9746V26.1039C53 26.6421 52.5613 27.0784 52.0201 27.0784H43.846C43.3048 27.0784 42.8661 26.6421 42.8661 26.1039V17.9746Z" fill="white"/>
  <path d="M42.8661 30.9353C42.8661 30.3971 43.3048 29.9608 43.846 29.9608H52.0201C52.5613 29.9608 53 30.3971 53 30.9353V39.0647C53 39.6029 52.5613 40.0392 52.0201 40.0392H43.846C43.3048 40.0392 42.8661 39.6029 42.8661 39.0647V30.9353Z" fill="white"/>
  <path d="M42.8661 43.8961C42.8661 43.3579 43.3048 42.9216 43.846 42.9216H52.0201C52.5613 42.9216 53 43.3579 53 43.8961V52.0254C53 52.5637 52.5613 53 52.0201 53H43.846C43.3048 53 42.8661 52.5637 42.8661 52.0254V43.8961Z" fill="white"/>
  <path fill-rule="evenodd" clip-rule="evenodd" d="M31.8327 30.0283H38.2647C38.5105 30.0283 38.7154 30.0702 38.9612 30.1958C39.248 30.3214 39.4118 30.5307 39.4938 30.6981C39.4938 30.6981 39.4938 30.74 39.5347 30.74C39.6576 30.9493 39.7396 31.2005 39.7396 31.4936C39.7396 31.7447 39.6986 31.9959 39.5347 32.2471L35.4789 39.3639C35.3969 39.5314 35.2331 39.6151 35.0282 39.6151C34.8643 39.6151 34.7005 39.5314 34.5776 39.3639L30.6036 32.2471C30.5217 32.0796 30.3578 31.8703 30.3578 31.5354C30.3169 31.2424 30.3988 30.9912 30.5217 30.74C30.6446 30.4888 30.8494 30.2795 31.1362 30.1958C31.382 30.0283 31.6688 30.0283 31.8327 30.0283ZM34.5366 31.0331H31.8327C31.6688 31.0331 31.5869 31.0331 31.5459 31.0749C31.464 31.1168 31.423 31.1586 31.382 31.2424C31.3411 31.2842 31.3411 31.368 31.3411 31.4517C31.3411 31.4936 31.382 31.5354 31.464 31.7029L34.5366 37.1452V31.0331ZM35.5198 31.0331V37.187L38.6334 31.7029C38.6744 31.6191 38.6744 31.5354 38.6744 31.4517C38.6744 31.368 38.6744 31.2842 38.6334 31.2424C38.5925 31.2005 38.5925 31.1586 38.5515 31.1586L38.5105 31.1168C38.4286 31.0749 38.3466 31.0749 38.2237 31.0749H35.5198V31.0331Z" fill="#A7E2FF"/>
</svg>