<svg width="89" height="90" viewBox="0 0 89 90" fill="none" xmlns="http://www.w3.org/2000/svg">
<rect x="0.202637" y="0.293213" width="24.8628" height="24.8628" rx="4" fill="#037DB7"/>
<rect x="0.202637" y="32.4329" width="24.8628" height="24.8628" rx="4" fill="#037DB7"/>
<rect x="0.202637" y="77.9141" width="10.9154" height="10.9154" rx="4" fill="#54CCFF"/>
<rect x="14.1501" y="77.9141" width="10.9154" height="10.9154" rx="4" fill="#037DB7"/>
<rect x="0.202637" y="63.9663" width="10.9154" height="10.9154" rx="4" fill="#54CCFF"/>
<rect x="14.1501" y="63.9663" width="10.9154" height="10.9154" rx="4" fill="#037DB7"/>
<rect x="31.7358" y="0.293213" width="24.8628" height="24.8628" rx="4" fill="#037DB7"/>
<rect x="31.9331" y="64.24" width="24.8628" height="24.8628" rx="4" fill="#037DB7"/>
<rect x="63.6633" y="0.293213" width="24.8628" height="24.8628" rx="4" fill="#037DB7"/>
<rect x="63.6633" y="32.2664" width="24.8628" height="24.8628" rx="4" fill="#037DB7"/>
<rect x="63.6633" y="64.24" width="24.8628" height="24.8628" rx="4" fill="#037DB7"/>
<path fill-rule="evenodd" clip-rule="evenodd" d="M36.5936 32.4329H52.3741C52.9772 32.4329 53.4798 32.5361 54.0828 32.846C54.7864 33.1558 55.1885 33.6722 55.3895 34.0853C55.3895 34.0853 55.3895 34.1885 55.49 34.1885C55.7916 34.7049 55.9926 35.3246 55.9926 36.0475C55.9926 36.6671 55.8921 37.2868 55.49 37.9064L45.5392 55.4632C45.3382 55.8763 44.9362 56.0829 44.4336 56.0829C44.0315 56.0829 43.6295 55.8763 43.328 55.4632L33.5782 37.9064C33.3772 37.4933 32.9751 36.977 32.9751 36.1508C32.8746 35.4278 33.0756 34.8082 33.3772 34.1885C33.6787 33.5689 34.1813 33.0525 34.8849 32.846C35.4879 32.4329 36.1915 32.4329 36.5936 32.4329ZM43.2274 34.9115H36.5936C36.1915 34.9115 35.9905 34.9115 35.89 35.0147C35.689 35.118 35.5885 35.2213 35.4879 35.4278C35.3874 35.5311 35.3874 35.7377 35.3874 35.9442C35.3874 36.0475 35.4879 36.1508 35.689 36.5639L43.2274 49.9896V34.9115ZM45.6398 34.9115V50.0929L53.2787 36.5639C53.3792 36.3573 53.3793 36.1508 53.3793 35.9442C53.3793 35.7377 53.3792 35.5311 53.2787 35.4278C53.1782 35.3246 53.1782 35.2213 53.0777 35.2213L52.9772 35.118C52.7762 35.0147 52.5751 35.0147 52.2736 35.0147H45.6398V34.9115Z" fill="#54CCFF"/>
</svg>
