<svg width="234" height="214" viewBox="0 0 234 214" fill="none" xmlns="http://www.w3.org/2000/svg">
<path d="M61.9705 99.9662L78.7381 151.25C79.0131 152.094 79.4898 152.857 80.1268 153.474C80.7638 154.091 81.5418 154.543 82.3932 154.791C83.2447 155.039 84.1438 155.075 85.0124 154.896C85.8811 154.718 86.693 154.33 87.3776 153.766L137.445 112.421C137.445 112.421 84.2397 91.686 84.2397 92.8057C84.2397 93.9254 61.9705 99.9662 61.9705 99.9662Z" fill="#B5D1DB"/>
<g filter="url(#filter0_d_0_1)">
<path d="M194.093 1.40646C161.387 14.345 55.833 57.6671 15.8837 73.9786C14.7228 74.4533 13.7365 75.2746 13.0595 76.3304C12.3824 77.3862 12.0475 78.6251 12.1004 79.8783C12.1533 81.1314 12.5915 82.3377 13.3551 83.3327C14.1188 84.3277 15.1707 85.0629 16.3675 85.438L61.9843 99.9663L78.6966 151.112C79.0052 152.062 79.5652 152.911 80.3173 153.568C81.0693 154.225 81.9853 154.666 82.968 154.845C84.5024 155.135 86.7694 113.444 86.7694 113.444C86.7694 113.444 134.722 149.011 157.462 165.806C158.751 166.755 160.259 167.361 161.846 167.569C163.433 167.777 165.047 167.58 166.537 166.996C168.027 166.413 169.346 165.461 170.369 164.231C171.393 163 172.088 161.531 172.391 159.959L201.889 7.90339C202.092 6.88464 202.016 5.8302 201.669 4.85103C201.323 3.87186 200.719 3.00417 199.921 2.33925C199.123 1.67433 198.161 1.23677 197.135 1.07262C196.11 0.908471 195.059 1.02379 194.093 1.40646Z" fill="white"/>
<path d="M194.093 1.40646C161.387 14.345 55.833 57.6671 15.8837 73.9786C14.7228 74.4533 13.7365 75.2746 13.0595 76.3304C12.3824 77.3862 12.0475 78.6251 12.1004 79.8783C12.1533 81.1314 12.5915 82.3377 13.3551 83.3327C14.1188 84.3277 15.1707 85.0629 16.3675 85.438L61.9843 99.9663L78.6966 151.112C79.0052 152.062 79.5652 152.911 80.3173 153.568C81.0693 154.225 81.9853 154.666 82.968 154.845C84.5024 155.135 86.7694 113.444 86.7694 113.444C86.7694 113.444 134.722 149.011 157.462 165.806C158.751 166.755 160.259 167.361 161.846 167.569C163.433 167.777 165.047 167.58 166.537 166.996C168.027 166.413 169.346 165.461 170.369 164.231C171.393 163 172.088 161.531 172.391 159.959L201.889 7.90339C202.092 6.88464 202.016 5.8302 201.669 4.85103C201.323 3.87186 200.719 3.00417 199.921 2.33925C199.123 1.67433 198.161 1.23677 197.135 1.07262C196.11 0.908471 195.059 1.02379 194.093 1.40646Z" stroke="#EFEFEF"/>
</g>
<path d="M82.9542 154.831C84.4886 155.121 86.7556 113.43 86.7556 113.43L165.548 39.4342C165.665 39.333 165.738 39.1914 165.754 39.038C165.77 38.8846 165.727 38.7309 165.634 38.6079C165.541 38.4849 165.405 38.4019 165.253 38.3757C165.101 38.3494 164.944 38.3819 164.815 38.4666L61.9705 99.9662L78.6828 151.112C78.9934 152.06 79.5544 152.905 80.3063 153.56C81.0582 154.214 81.9731 154.654 82.9542 154.831Z" fill="#D6E2EA"/>
<defs>
<filter id="filter0_d_0_1" x="0.594971" y="0.5" width="232.905" height="212.649" filterUnits="userSpaceOnUse" color-interpolation-filters="sRGB">
<feFlood flood-opacity="0" result="BackgroundImageFix"/>
<feColorMatrix in="SourceAlpha" type="matrix" values="0 0 0 0 0 0 0 0 0 0 0 0 0 0 0 0 0 0 127 0" result="hardAlpha"/>
<feOffset dx="10" dy="24"/>
<feGaussianBlur stdDeviation="10.5"/>
<feComposite in2="hardAlpha" operator="out"/>
<feColorMatrix type="matrix" values="0 0 0 0 0.0275 0 0 0 0 0.0982143 0 0 0 0 0.1375 0 0 0 0.29 0"/>
<feBlend mode="normal" in2="BackgroundImageFix" result="effect1_dropShadow_0_1"/>
<feBlend mode="normal" in="SourceGraphic" in2="effect1_dropShadow_0_1" result="shape"/>
</filter>
</defs>
</svg>
