<svg xmlns="http://www.w3.org/2000/svg" width="24" height="17" viewBox="0 0 24 17" fill="none">
  <path d="M20.5295 0.210449H3.65454C2.90886 0.211197 2.19396 0.489323 1.66668 0.983799C1.13941 1.47828 0.842839 2.14871 0.842041 2.84801V14.1518C0.842839 14.8511 1.13941 15.5216 1.66668 16.016C2.19396 16.5105 2.90886 16.7886 3.65454 16.7894H20.5295C21.2752 16.7886 21.9901 16.5105 22.5174 16.016C23.0447 15.5216 23.3412 14.8511 23.342 14.1518V2.84801C23.3412 2.14871 23.0447 1.47828 22.5174 0.983799C21.9901 0.489323 21.2752 0.211197 20.5295 0.210449ZM19.8174 4.57326L12.5852 9.84838C12.4442 9.95119 12.2707 10.007 12.092 10.007C11.9134 10.007 11.7399 9.95119 11.5988 9.84838L4.36671 4.57326C4.28174 4.51308 4.21036 4.43767 4.15674 4.3514C4.10312 4.26513 4.06831 4.16973 4.05434 4.07074C4.04037 3.97174 4.04753 3.87113 4.07538 3.77476C4.10323 3.67838 4.15123 3.58815 4.21659 3.50932C4.28195 3.43049 4.36336 3.36463 4.45609 3.31556C4.54883 3.26649 4.65104 3.23519 4.75678 3.22349C4.86253 3.21178 4.9697 3.2199 5.07206 3.24738C5.17443 3.27485 5.26996 3.32113 5.35309 3.38353L12.092 8.29881L18.831 3.38353C18.9995 3.26419 19.2113 3.21185 19.4207 3.23782C19.63 3.2638 19.82 3.36601 19.9496 3.52234C20.0793 3.67867 20.138 3.87657 20.1133 4.07323C20.0885 4.26989 19.9822 4.44952 19.8174 4.57326Z" fill="white"/>
</svg>